PathFileType  4	(X/Y/Z) C:\Users\antoi\Documents\MyRepositories\mobilecap\ResultsAnalysis
DataRate	CameraRate	NumFrames	NumMarkers	Units	OrigDataRate	OrigDataStartFrame	OrigNumFrames
100.0	100.0	4	51	mm	100.0	222	1774
Frame#	Time	r_knee			r_shank_antsup			r_ankle			r_calc			r_5meta			r_toe			L_knee			L_shank_antsup			L_ankle			L_calc			L_5meta			L_toe			r_sh2			r_sh3			r_sh4			L_sh2			L_sh3			r_thigh1			r_thigh2			r_thigh3			r_thigh4			r_thigh5			L_thigh1			L_thigh2			L_thigh3			L_thigh4			r.ASIS			r.PSIS			L.ASIS			L.PSIS			C7			R_Shoulder			L_Shoulder			R_Sternum			L_Sternum			R_humerus			R_elbow_med			R_elbow_lat			R_forearm			R_wrist_radius			R_wrist_ulna			L_humerus			L_elbow_med			L_elbow_lat			L_forearm			L_wrist_radius			L_wrist_ulna			R_HJC			L_HJC			R_HJC_reg			L_HJC_reg			
		X1	Y1	Z1	X2	Y2	Z2	X3	Y3	Z3	X4	Y4	Z4	X5	Y5	Z5	X6	Y6	Z6	X7	Y7	Z7	X8	Y8	Z8	X9	Y9	Z9	X10	Y10	Z10	X11	Y11	Z11	X12	Y12	Z12	X13	Y13	Z13	X14	Y14	Z14	X15	Y15	Z15	X16	Y16	Z16	X17	Y17	Z17	X18	Y18	Z18	X19	Y19	Z19	X20	Y20	Z20	X21	Y21	Z21	X22	Y22	Z22	X23	Y23	Z23	X24	Y24	Z24	X25	Y25	Z25	X26	Y26	Z26	X27	Y27	Z27	X28	Y28	Z28	X29	Y29	Z29	X30	Y30	Z30	X31	Y31	Z31	X32	Y32	Z32	X33	Y33	Z33	X34	Y34	Z34	X35	Y35	Z35	X36	Y36	Z36	X37	Y37	Z37	X38	Y38	Z38	X39	Y39	Z39	X40	Y40	Z40	X41	Y41	Z41	X42	Y42	Z42	X43	Y43	Z43	X44	Y44	Z44	X45	Y45	Z45	X46	Y46	Z46	X47	Y47	Z47	X48	Y48	Z48	X49	Y49	Z49	X50	Y50	Z50	X51	Y51	Z51	

222	2.21000000	-200.48189	498.65224	-443.94464	-173.88849	401.66313	-445.73781	-295.41062	91.63557	-434.73513	-360.10981	58.23482	-476.55846	-172.26343	43.06766	-403.97529	-144.25016	71.35853	-462.03008	-194.44402	503.79045	-773.00582	-162.56163	412.66304	-762.13269	-284.86069	97.61697	-778.89523	-361.03934	55.86127	-737.95459	-177.49613	40.12743	-807.58582	-135.56628	64.70811	-747.33925	-198.80669	290.67728	-440.77337	-236.43087	415.09987	-405.28689	-266.53107	305.29139	-396.17895	-238.03915	444.40686	-805.28029	-266.28033	325.39967	-816.22943	-171.37351	783.26176	-435.34880	-153.91550	674.03125	-446.27697	-199.67257	637.96489	-411.49511	-279.09399	759.55687	-408.67998	-253.74222	647.53168	-423.17174	-249.79833	735.06541	-815.88373	-123.65212	621.96120	-755.19703	-150.97832	757.87867	-773.15872	-225.59008	605.68251	-789.90233	-165.70465	973.34333	-485.87601	-369.42034	1000.98658	-565.65379	-166.56468	977.92116	-735.81097	-367.37221	1001.88442	-660.26087	-310.54889	1462.66400	-616.40286	-236.73482	1436.56789	-448.10971	-220.84599	1431.38427	-768.49165	-180.54591	1396.97577	-586.10029	-181.51220	1396.47241	-631.85428	-211.53550	1310.68493	-383.58513	-317.86866	1119.69614	-406.40764	-307.94667	1130.63714	-332.92704	-211.16209	1134.68174	-347.46420	-73.22664	1141.10272	-440.76315	-72.77437	1102.43230	-409.05074	-199.19891	1292.10469	-832.18887	-285.89448	1100.95072	-797.21214	-262.09246	1112.60173	-877.40838	-186.97245	1124.77799	-865.25282	-41.00054	1148.72489	-781.54158	-40.82217	1103.27577	-806.00345	-244.97790	883.98065	-511.67799	-243.00627	888.09256	-701.18565	-237.55277	897.26815	-523.31443	-233.98001	898.83063	-688.25128	
223	2.22000000	-199.97832	498.19626	-443.64769	-172.86398	401.56163	-445.95974	-295.27897	91.86367	-434.82668	-359.98061	58.47060	-476.62836	-172.17179	43.20319	-404.05034	-144.15003	71.30768	-462.05279	-194.21152	503.74253	-773.54810	-161.87179	412.63114	-762.56228	-284.65329	97.83800	-779.05393	-361.10213	55.80796	-737.07649	-177.45502	40.12444	-807.57225	-135.42827	64.65452	-747.28265	-197.95267	290.56843	-441.18719	-235.27329	415.05124	-405.26735	-265.32442	305.37322	-396.46617	-237.33231	444.42062	-805.80993	-265.60445	325.38760	-816.66030	-175.04201	783.01612	-435.56171	-156.10116	674.10596	-446.44205	-201.39422	637.53751	-411.52785	-282.40011	758.03430	-408.89520	-255.57257	646.29809	-423.37823	-253.33017	734.15479	-815.99847	-125.64444	622.21343	-755.57045	-154.67805	757.90885	-773.14978	-227.50345	604.91285	-790.22243	-170.18643	971.80267	-486.35356	-373.64978	1002.08817	-565.22884	-171.55208	976.57931	-735.79132	-372.05585	1003.17043	-660.13994	-305.70767	1463.21858	-616.32897	-231.97163	1436.23604	-448.55639	-216.70535	1430.71008	-768.29288	-177.07198	1395.40652	-586.03059	-178.13876	1394.73640	-631.99184	-207.26861	1310.52897	-383.63343	-314.85960	1119.93083	-404.87399	-304.31191	1131.06254	-331.69161	-207.67144	1134.85254	-346.51716	-70.14283	1140.48405	-440.30137	-69.57700	1102.15392	-408.20402	-196.31971	1291.69742	-832.35156	-284.30246	1101.18259	-798.29237	-260.28594	1112.80122	-878.38637	-185.11937	1124.88538	-866.42210	-39.18568	1148.15148	-782.44235	-39.04570	1102.87828	-807.11638	-250.68707	883.48230	-511.80577	-249.13084	887.74585	-701.31375	-242.80311	896.67076	-523.51612	-240.03902	898.54819	-688.14488	
224	2.23000000	-199.01240	498.58051	-443.51566	-171.81964	401.54596	-446.08549	-295.10006	92.05652	-434.84390	-359.77068	58.81494	-476.65279	-172.10620	43.29352	-404.10193	-144.03140	71.27225	-462.03969	-194.11668	503.76488	-774.31759	-161.19784	412.53312	-762.99489	-284.46211	97.98902	-779.04888	-361.26025	55.59554	-735.71534	-177.41364	40.13999	-807.56039	-135.30913	64.64149	-747.28008	-197.05974	290.54885	-441.64047	-233.99800	415.06846	-405.17019	-264.31422	305.17699	-396.57284	-236.60113	444.39025	-806.47411	-265.02254	325.41483	-817.05515	-178.96086	782.83082	-435.63821	-158.48703	674.12095	-446.48882	-203.25178	636.94571	-411.66799	-286.01962	756.27930	-409.16670	-257.54511	644.98085	-423.48926	-257.05894	733.11858	-816.09265	-127.67829	622.43188	-756.03844	-158.58111	757.84375	-773.21548	-229.45120	604.11517	-790.56953	-175.01046	969.96816	-486.82263	-377.98735	1003.14691	-564.75686	-176.79130	974.99622	-735.69917	-376.59706	1004.18043	-659.86744	-300.44969	1463.36532	-616.30619	-226.83094	1435.65185	-448.97300	-212.14533	1429.67447	-768.24945	-173.44243	1393.38414	-586.13732	-174.29660	1392.72675	-632.04919	-202.79346	1310.09852	-383.67908	-311.58358	1119.83666	-403.27848	-300.62804	1131.27901	-330.34462	-204.09991	1134.68212	-345.66868	-66.93337	1139.58747	-439.86395	-66.36084	1101.39061	-407.73596	-193.23913	1290.88953	-832.43400	-282.69777	1100.71857	-799.25481	-258.38817	1112.69891	-879.34730	-183.23419	1124.57331	-867.35178	-37.30358	1147.24180	-783.39280	-37.22342	1102.09102	-808.15355	-256.63129	882.77691	-511.85226	-255.46028	887.18367	-701.35989	-248.67447	896.20087	-523.69270	-246.27360	897.98709	-687.96235	
225	2.24000000	-197.82189	499.14277	-443.31905	-170.74185	401.40064	-446.26929	-294.89198	92.23219	-434.85698	-359.56432	59.22084	-476.70319	-172.08596	43.29897	-404.10933	-143.89694	71.23278	-462.02391	-194.05091	503.73977	-775.17236	-160.45781	412.47335	-763.57208	-284.25324	98.07891	-778.85643	-361.28624	55.89178	-735.29583	-177.37136	40.15768	-807.56295	-135.21752	64.62125	-747.29541	-196.19811	290.54873	-441.82999	-232.67201	415.11956	-405.14903	-263.82977	304.70027	-396.31199	-235.65390	444.62314	-807.75794	-264.43490	325.53091	-817.71713	-183.10277	782.63057	-435.61980	-161.05180	674.12082	-446.45721	-205.20017	636.26650	-411.69740	-289.87835	754.42112	-409.36615	-259.64050	643.48905	-423.54559	-260.90129	731.87529	-816.15243	-129.80810	622.85863	-756.69059	-162.73328	757.82071	-773.49471	-231.37073	603.24252	-791.11706	-180.12473	967.92207	-487.20270	-382.56990	1004.08534	-564.32926	-182.20581	973.03571	-735.39951	-381.36002	1005.04633	-659.53086	-294.82988	1463.09287	-616.27723	-221.42219	1434.69549	-449.33602	-207.39402	1428.14128	-768.08473	-169.10668	1390.92378	-586.46393	-170.17623	1390.22247	-632.00146	-198.28469	1309.21083	-383.78716	-308.28317	1119.45682	-401.99702	-296.97971	1131.13356	-329.07604	-200.49809	1134.26041	-344.88380	-63.67464	1138.38462	-439.48721	-63.19072	1100.29806	-407.19345	-189.99436	1289.71140	-832.58893	-280.86938	1099.86433	-800.14954	-256.43289	1112.21261	-880.25781	-181.31780	1123.75908	-868.08128	-35.38046	1145.95823	-784.30214	-35.33292	1100.83750	-809.15972	-262.94693	881.92489	-511.74037	-262.06178	886.35733	-701.24922	-254.83608	895.55117	-523.75619	-252.75361	897.20475	-687.58420	
